<svg xmlns="http://www.w3.org/2000/svg" viewBox="-0.5 -0.5 24 24" fill="none" stroke="#000000" stroke-linecap="round" stroke-linejoin="round" id="Dog--Streamline-Lucide.svg"><desc>Dog Streamline Icon: https://streamlinehq.com</desc><path d="M9.583333333333334 4.9565C9.583333333333334 3.624416666666667 8.072041666666667 2.5673749999999997 6.229166666666667 2.875c-2.705375 0.45041666666666663 -3.9416250000000006 5.755750000000001 -3.8333333333333335 6.708333333333334 0.07666666666666667 0.6737083333333334 1.6531250000000002 1.65025 3.503666666666667 0.9583333333333334 1.2084583333333332 -0.4523333333333333 1.8783333333333334 -1.3895833333333334 2.2463333333333333 -2.3958333333333335" stroke-width="1"></path><path d="M13.672541666666667 4.9565c0 -1.3320833333333333 1.5112916666666667 -2.389125 3.354166666666667 -2.0815 2.705375 0.45041666666666663 3.9416250000000006 5.755750000000001 3.8333333333333335 6.708333333333334 -0.07666666666666667 0.6737083333333334 -1.6531250000000002 1.65025 -3.503666666666667 0.9583333333333334 -1.2084583333333332 -0.4523333333333333 -1.7777083333333334 -1.3895833333333334 -2.1457083333333333 -2.3958333333333335" stroke-width="1"></path><path d="M7.666666666666667 13.416666666666668v0.4791666666666667" stroke-width="1"></path><path d="M15.333333333333334 13.416666666666668v0.4791666666666667" stroke-width="1"></path><path d="M10.78125 15.572916666666668h1.4375L11.5 16.291666666666668l-0.71875 -0.71875Z" stroke-width="1"></path><path d="M4.235833333333334 10.778375A12.604 12.604 0 0 0 3.8333333333333335 13.9495C3.8333333333333335 17.94766666666667 7.2660833333333334 20.125 11.5 20.125s7.666666666666667 -2.1773333333333333 7.666666666666667 -6.1755c0 -1.0167916666666668 -0.15525 -2.1083333333333334 -0.47245833333333337 -3.1711250000000004m-8.857875 -5.8285833333333334A8.434291666666667 8.434291666666667 0 0 1 11.5 4.791666666666667c0.7475 0 1.4375 0.10350000000000001 2.0709583333333335 0.29325" stroke-width="1"></path></svg>