<svg xmlns="http://www.w3.org/2000/svg" viewBox="-0.5 -0.5 24 24" fill="none" stroke="#000000" stroke-linecap="round" stroke-linejoin="round" id="Fish--Streamline-Lucide.svg"><desc>Fish Streamline Icon: https://streamlinehq.com</desc><path d="M6.229166666666667 11.5c0.9008333333333333 -3.3158333333333334 4.734166666666667 -5.75 8.145833333333334 -5.75 3.411666666666667 0 5.8075 2.4341666666666666 6.708333333333334 5.75 -0.9008333333333333 3.325416666666667 -3.296666666666667 5.75 -6.708333333333334 5.75s-7.245 -2.424583333333333 -8.145833333333334 -5.75Z" stroke-width="1"></path><path d="M17.25 11.5v0.4791666666666667" stroke-width="1"></path><path d="M15.333333333333334 17.182916666666667a9.362916666666667 9.362916666666667 0 0 1 0 -11.365833333333333" stroke-width="1"></path><path d="M6.708333333333334 10.225416666666668C6.708333333333334 7.666666666666667 5.3475 5.72125 2.61625 5.270833333333334c-0.9583333333333334 1.4375 -0.9583333333333334 4.791666666666667 0.22041666666666668 6.229166666666667 -1.1883333333333335 1.4375 -1.1883333333333335 4.791666666666667 -0.22041666666666668 6.229166666666667C5.3475 17.278750000000002 6.708333333333334 15.333333333333334 6.708333333333334 12.774583333333334" stroke-width="1"></path><path d="M10.024166666666668 6.9575000000000005C9.775 5.635 8.787916666666668 4.0633333333333335 7.666666666666667 2.875h5.558333333333334a1.9166666666666667 1.9166666666666667 0 0 1 1.8975 1.6004166666666666l0.22041666666666668 1.3416666666666666" stroke-width="1"></path><path d="m15.34291666666667 17.182916666666667 -0.22041666666666668 1.3416666666666666A1.9166666666666667 1.9166666666666667 0 0 1 13.225000000000001 20.125H9.104166666666668a5.711666666666667 5.711666666666667 0 0 0 1.4279166666666667 -3.814166666666667" stroke-width="1"></path></svg>