<svg xmlns="http://www.w3.org/2000/svg" viewBox="0 0 256 256" fill="#000000" id="Fish-Simple-Light--Streamline-Phosphor.svg"><desc>Fish Simple Light Streamline Icon: https://streamlinehq.com</desc><path d="M180.4656 59.575c0 8.7776 -9.5021 14.2636 -17.1037 9.8748 -7.6017 -4.3888 -7.6017 -15.3608 0 -19.7496 1.7335 -1.0009 3.6995 -1.5278 5.7012 -1.5277 6.2972 0.0003 11.4025 5.1053 11.4025 11.4025Zm48.3237 88.8253c-16.8643 23.3067 -42.0067 39.0193 -74.7205 46.7502 -23.375 5.4846 -50.8322 6.8415 -82.0978 4.1961q2.7708 21.6647 8.0615 45.781c0.812 3.6939 -1.5273 7.3459 -5.2223 8.1528 -0.4835 0.1037 -0.9764 0.1572 -1.4709 0.1596 -3.211 -0.0064 -5.9855 -2.2449 -6.6705 -5.382q-5.781 -26.3739 -8.6317 -50.1709 -23.7171 -2.862 -50.1025 -8.6317c-5.1481 -1.1411 -7.1303 -7.4272 -3.5681 -11.315 1.6533 -1.8044 4.1435 -2.5897 6.5328 -2.0601q24.1048 5.2794 45.7467 8.0616c-2.6795 -31.1972 -1.2884 -58.6202 4.2076 -81.9839 7.6852 -32.7023 23.3865 -57.8448 46.6361 -74.7204C161.7085 -12.0326 240.112 6.7131 244.3195 9.2102c0.9939 0.5838 1.8221 1.412 2.4059 2.406 2.5428 4.2075 21.3227 82.5425 -17.9475 136.7955Zm-20.456 3.0673c-53.3124 -8.6554 -95.1072 -50.4502 -103.7626 -103.7626 -28.6545 28.1641 -40.0455 74.3898 -34.0592 137.8446 63.4206 5.9635 109.6348 -5.4162 137.8104 -34.0706Zm26.9326 -130.7409c-14.5723 -3.2383 -74.595 -13.8768 -118.2323 16.5564 4.6525 54.1057 47.5593 97.0174 101.6645 101.676 30.4218 -43.6145 19.7947 -103.6486 16.5678 -118.2324Z" stroke-width="1"></path></svg>