<svg xmlns="http://www.w3.org/2000/svg" viewBox="0 0 576 576" id="Frog--Streamline-Font-Awesome.svg"><desc>Frog Streamline Icon: https://streamlinehq.com</desc><!--! Font Awesome Free 6.5.2 by @fontawesome - https://fontawesome.com License - https://fontawesome.com/license/free (Icons: CC BY 4.0, Fonts: SIL OFL 1.1, Code: MIT License) Copyright 2024 Fonticons, Inc.--><path d="M366.3374 68.5181c40.8589 0 74.3691 31.1586 78.0924 71.0377l83.8735 25.7695c24.8877 7.6427 41.9367 30.6687 41.9367 56.7322 0 21.3602 -11.464 41.0548 -30.0808 51.637l-141.6834 80.444 90.6343 90.6343h49.6774c17.343 0 31.3545 14.0116 31.3545 31.3545s-14.0115 31.3546 -31.3545 31.3546h-62.7091c-8.3286 0 -16.2652 -3.3314 -22.1442 -9.2104L345.663 390.0983c11.464 -35.2739 3.1355 -75.5449 -24.8877 -103.568 -39.7811 -39.7811 -104.1559 -39.7811 -143.937 -0.098l-72.1155 68.5881c-6.2709 5.9769 -6.5648 15.8732 -0.5879 22.1441s15.8733 6.4669 22.1442 0.5879l72.3114 -68.784 0.098 -0.098 0.098 -0.098c3.4294 -3.4294 7.1528 -6.4669 11.0721 -9.0144 27.3372 -18.1269 64.5708 -15.0894 88.6746 9.0144 24.2018 24.2018 27.1413 61.6313 8.8185 89.0665 -2.5476 3.7234 -5.4871 7.3488 -8.8185 10.6802l-36.2537 36.2537h88.3806c17.343 0 31.3546 14.0116 31.3546 31.3546s-14.0116 31.3545 -31.3546 31.3545H68.4691c-34.588 0 -62.7091 -28.1211 -62.7091 -62.7091 0 -163.0437 124.4384 -296.9865 283.4648 -312.0758 6.7608 -36.5477 38.7033 -64.1789 77.1126 -64.1789Zm0 101.9023c18.1026 0.0118 29.4294 -19.5774 20.3884 -35.2606 -4.2015 -7.2881 -11.976 -11.7767 -20.3884 -11.7712 -18.1026 -0.0118 -29.4294 19.5774 -20.3884 35.2606 4.2015 7.2881 11.976 11.7767 20.3884 11.7712Z" fill="#000000" stroke-width="1"></path></svg>