<svg xmlns="http://www.w3.org/2000/svg" viewBox="0 0 640 640" id="Otter--Streamline-Font-Awesome.svg"><desc>Otter Streamline Icon: https://streamlinehq.com</desc><!--! Font Awesome Free 6.5.2 by @fontawesome - https://fontawesome.com License - https://fontawesome.com/license/free (Icons: CC BY 4.0, Fonts: SIL OFL 1.1, Code: MIT License) Copyright 2024 Fonticons, Inc.--><path d="m184.27 262.278 12.642 6.272c5.782 2.94 12.152 4.41 18.718 4.41 23.03 0 41.748 -18.718 41.748 -41.748V210.24c0 -34.594 -28.126 -62.72 -62.72 -62.72H131.84c-34.594 0 -62.72 28.126 -62.72 62.72v20.972c0 23.03 18.718 41.748 41.748 41.748 6.468 0 12.838 -1.47 18.718 -4.41l12.642 -6.272 8.232 -4.116 -11.662 -7.742c-4.41 -2.94 -6.958 -7.84 -6.958 -13.034v-3.626c0 -13.034 10.486 -23.52 23.52 -23.52h15.68c13.034 0 23.52 10.486 23.52 23.52v3.626c0 5.194 -2.646 10.094 -6.958 13.034l-11.564 7.742 8.232 4.116Zm-8.428 48.412 -12.642 -6.37 -12.642 6.272c-12.348 6.174 -25.97 9.408 -39.69 9.408 -3.528 0 -6.958 -0.196 -10.388 -0.588V320c0 34.594 28.126 62.72 62.72 62.72h62.72c17.346 0 31.36 14.014 31.36 31.36s-14.014 31.36 -31.36 31.36h156.8v-62.72c0 -23.226 12.642 -43.512 31.36 -54.292 9.212 -5.292 19.894 -8.428 31.36 -8.428v-15.68c0 -25.97 21.07 -47.04 47.04 -47.04 8.624 0 15.68 7.056 15.68 15.68v94.08c0 8.624 7.056 15.68 15.68 15.68s15.68 -7.056 15.68 -15.68v-97.706c0 -47.236 -30.184 -89.18 -75.068 -104.174l-8.33 -2.744c-7.84 -2.646 -12.348 -10.878 -10.192 -18.914s10.094 -12.936 18.228 -11.368l19.502 3.92c87.22 17.444 149.94 93.982 149.94 182.868V320c0 121.226 -98.294 219.52 -219.52 219.52H256.692c-120.932 0 -218.932 -98 -218.932 -218.932v-39.004c-9.898 -14.308 -15.68 -31.654 -15.68 -50.372v-22.344C12.966 205.634 6.4 197.01 6.4 186.72c0 -13.034 10.486 -23.52 23.52 -23.52h2.744c17.64 -37.044 55.37 -62.72 99.176 -62.72h62.72c43.806 0 81.536 25.676 99.176 62.72h2.744c13.034 0 23.52 10.486 23.52 23.52 0 10.29 -6.566 18.914 -15.68 22.148v22.344c0 1.372 0 2.744 -0.098 4.214 11.76 -6.076 25.186 -9.408 39.298 -9.408h7.84c17.346 0 31.36 14.014 31.36 31.36s-14.014 31.36 -31.36 31.36h-7.84c-13.034 0 -23.52 10.486 -23.52 23.52v7.84h55.272c-14.896 16.66 -23.912 38.612 -23.912 62.72H320c-41.454 0 -76.636 -26.852 -89.18 -63.994 -4.998 0.882 -10.094 1.274 -15.288 1.274 -13.818 0 -27.342 -3.234 -39.69 -9.408ZM100.48 194.56c12.0705 0 19.6145 13.0667 13.5793 23.52 -2.801 4.8514 -7.9774 7.84 -13.5793 7.84 -12.0705 0 -19.6145 -13.0667 -13.5793 -23.52 2.8011 -4.8516 7.9771 -7.8403 13.5793 -7.84Zm109.76 15.68c0 -12.0705 13.0667 -19.6145 23.52 -13.5793 4.8514 2.801 7.84 7.9774 7.84 13.5793 0 12.0705 -13.0667 19.6145 -23.52 13.5793 -4.8514 -2.801 -7.84 -7.9774 -7.84 -13.5793Z" fill="#000000" stroke-width="1"></path></svg>