<svg xmlns="http://www.w3.org/2000/svg" viewBox="-0.5 -0.5 24 24" fill="none" stroke="#000000" stroke-linecap="round" stroke-linejoin="round" id="Rabbit--Streamline-Lucide.svg"><desc>Rabbit Streamline Icon: https://streamlinehq.com</desc><path d="M12.458333333333334 15.333333333333334a2.875 2.875 0 0 1 2.146666666666667 4.791666666666667" stroke-width="1"></path><path d="M17.25 11.5h0.009583333333333334" stroke-width="1"></path><path d="M17.25 20.125h-7.666666666666667a3.8333333333333335 3.8333333333333335 0 0 1 -3.8333333333333335 -3.8333333333333335 6.708333333333334 6.708333333333334 0 0 1 6.708333333333334 -6.708333333333334h0.19166666666666668L9.2 6.133333333333334a0.9583333333333334 0.9583333333333334 0 1 1 2.683333333333333 -2.683333333333333L15.141666666666667 6.708333333333334h0.19166666666666668c3.1625 0 5.75 2.5875000000000004 5.75 5.75v0.9583333333333334a1.9166666666666667 1.9166666666666667 0 0 1 -1.9166666666666667 1.9166666666666667h-0.9583333333333334a2.875 2.875 0 0 0 -2.875 2.875" stroke-width="1"></path><path d="M19.166666666666668 8.184166666666666V3.8333333333333335a1.9166666666666667 1.9166666666666667 0 1 0 -3.8333333333333335 0v2.875" stroke-width="1"></path><path d="M7.294833333333334 12.002166666666666a2.875 2.875 0 1 0 -1.5333333333333334 4.120833333333334" stroke-width="1"></path></svg>