<svg xmlns="http://www.w3.org/2000/svg" viewBox="-0.5 -0.5 24 24" fill="none" stroke="#000000" stroke-linecap="round" stroke-linejoin="round" id="Rat--Streamline-Lucide.svg"><desc>Rat Streamline Icon: https://streamlinehq.com</desc><path d="M16.291666666666668 4.791666666666667c0 -1.6291666666666667 -1.2458333333333333 -2.875 -2.875 -2.875s-2.875 1.2458333333333333 -2.875 2.875c0 0.7666666666666667 0.2875 1.4375 0.7666666666666667 1.9166666666666667H10.541666666666668c-3.7375000000000003 0 -6.708333333333334 2.9708333333333337 -6.708333333333334 6.708333333333334v0c0 2.1083333333333334 1.725 3.8333333333333335 3.8333333333333335 3.8333333333333335" stroke-width="1"></path><path d="M16.1 3.7375000000000003c0.2875 -0.2875 0.575 -0.4791666666666667 0.9583333333333334 -0.6708333333333333 1.4375 -0.575 3.1625 0.09583333333333334 3.7375000000000003 1.5333333333333334 0.575 1.4375 -0.09583333333333334 3.1625 -1.5333333333333334 3.7375000000000003l1.5333333333333334 2.683333333333333c0.19166666666666668 0.2875 0.19166666666666668 0.6708333333333333 0.19166666666666668 0.9583333333333334 -0.19166666666666668 0.7666666666666667 -0.8625 1.15 -1.6291666666666667 1.0541666666666667 0 0 -1.5333333333333334 -0.2875 -2.5875000000000004 -0.575H16.291666666666668c-1.6291666666666667 0 -2.875 1.2458333333333333 -2.875 2.875" stroke-width="1"></path><path d="M12.65 17.25a2.875 2.875 0 0 0 -2.1083333333333334 -4.791666666666667" stroke-width="1"></path><path d="M12.458333333333334 21.083333333333336H3.8333333333333335a1.9166666666666667 1.9166666666666667 0 0 1 0 -3.8333333333333335h11.5" stroke-width="1"></path><path d="M15.333333333333334 8.625h0.009583333333333334" stroke-width="1"></path></svg>