<svg xmlns="http://www.w3.org/2000/svg" viewBox="-0.5 -0.5 24 24" fill="none" stroke="#000000" stroke-linecap="round" stroke-linejoin="round" id="Snail--Streamline-Lucide.svg"><desc>Snail Streamline Icon: https://streamlinehq.com</desc><path d="M1.9166666666666667 12.458333333333334a5.75 5.75 0 1 0 11.5 0 3.8333333333333335 3.8333333333333335 0 1 0 -7.666666666666667 0 1.9166666666666667 1.9166666666666667 0 0 0 3.8333333333333335 0" stroke-width="1"></path><path d="M1.9166666666666667 12.458333333333334a7.666666666666667 7.666666666666667 0 1 0 15.333333333333334 0 7.666666666666667 7.666666666666667 0 1 0 -15.333333333333334 0" stroke-width="1"></path><path d="M1.9166666666666667 20.125h11.5c4.216666666666667 0 7.666666666666667 -3.45 7.666666666666667 -7.666666666666667V6.708333333333334a1.9166666666666667 1.9166666666666667 0 1 0 -3.8333333333333335 0v5.75" stroke-width="1"></path><path d="m17.25 2.875 1.0541666666666667 2.1083333333333334" stroke-width="1"></path><path d="m21.083333333333336 2.875 -1.0541666666666667 2.1083333333333334" stroke-width="1"></path></svg>