<svg xmlns="http://www.w3.org/2000/svg" viewBox="-0.5 -0.5 24 24" fill="none" stroke="#000000" stroke-linecap="round" stroke-linejoin="round" id="Squirrel--Streamline-Lucide.svg"><desc>Squirrel Streamline Icon: https://streamlinehq.com</desc><path d="M14.601166666666668 21.083333333333336a2.875 2.875 0 0 0 -2.1083333333333334 -4.791666666666667" stroke-width="1"></path><path d="M15.333333333333334 19.166666666666668a2.875 2.875 0 0 1 2.875 -2.875h0.9583333333333334a1.9166666666666667 1.9166666666666667 0 0 0 1.9166666666666667 -1.9166666666666667v-1.9166666666666667a3.8333333333333335 3.8333333333333335 0 0 0 -3.8333333333333335 -3.8333333333333335V3.8333333333333335" stroke-width="1"></path><path d="M17.25 12.458333333333334h0.009583333333333334" stroke-width="1"></path><path d="M17.25 5.75a3.8333333333333335 3.8333333333333335 0 0 0 -3.8333333333333335 3.8333333333333335 6.708333333333334 6.708333333333334 0 0 0 -6.708333333333334 6.708333333333334c0 -4.791666666666667 3.8333333333333335 -4.791666666666667 3.8333333333333335 -10.0625a4.3125 4.3125 0 1 0 -8.625 0 2.3958333333333335 2.3958333333333335 0 0 0 4.791666666666667 0C6.708333333333334 9.583333333333334 2.875 10.541666666666668 2.875 16.291666666666668c0 2.683333333333333 2.1083333333333334 4.791666666666667 4.791666666666667 4.791666666666667h9.583333333333334" stroke-width="1"></path></svg>