<svg xmlns="http://www.w3.org/2000/svg" viewBox="-0.5 -0.5 24 24" fill="none" stroke="#000000" stroke-linecap="round" stroke-linejoin="round" id="Turtle--Streamline-Lucide.svg"><desc>Turtle Streamline Icon: https://streamlinehq.com</desc><path d="m11.5 9.583333333333334 1.9166666666666667 3.8333333333333335v2.875a0.9583333333333334 0.9583333333333334 0 0 0 0.9583333333333334 0.9583333333333334h1.9166666666666667a0.9583333333333334 0.9583333333333334 0 0 0 0.9583333333333334 -0.9583333333333334v-2.875a7.666666666666667 7.666666666666667 0 1 0 -15.333333333333334 0v2.875a0.9583333333333334 0.9583333333333334 0 0 0 0.9583333333333334 0.9583333333333334h1.9166666666666667a0.9583333333333334 0.9583333333333334 0 0 0 0.9583333333333334 -0.9583333333333334v-2.875l1.9166666666666667 -3.8333333333333335h3.8333333333333335Z" stroke-width="1"></path><path d="M4.6191666666666675 7.570833333333334 7.666666666666667 9.583333333333334" stroke-width="1"></path><path d="M14.5475 7.570833333333334 11.5 9.583333333333334" stroke-width="1"></path><path d="M16.224583333333335 9.583333333333334H19.166666666666668a1.9166666666666667 1.9166666666666667 0 0 1 0 3.8333333333333335H1.9166666666666667" stroke-width="1"></path></svg>